<?xml version="1.0" standalone="no"?>
<!DOCTYPE svg PUBLIC "-//W3C//DTD SVG 20010904//EN"
 "http://www.w3.org/TR/2001/REC-SVG-20010904/DTD/svg10.dtd">
<svg version="1.0" xmlns="http://www.w3.org/2000/svg"
 width="1152.000000pt" height="648.000000pt" viewBox="0 0 1152.000000 648.000000"
 preserveAspectRatio="xMidYMid meet">

<g transform="translate(0.000000,648.000000) scale(0.100000,-0.100000)"
fill="#000000" stroke="none">
<path d="M0 4195 l0 -2285 77 63 c97 77 192 128 308 163 81 25 105 27 240 27
135 0 159 -2 240 -27 229 -69 409 -216 505 -411 58 -120 74 -190 74 -330 0
-140 -16 -210 -75 -331 -96 -196 -273 -340 -506 -411 -79 -24 -104 -26 -238
-26 -135 0 -159 2 -240 27 -116 35 -211 86 -307 163 l-78 63 0 -440 0 -440
943 1 c906 0 940 1 877 17 -87 23 -153 63 -223 135 -185 191 -182 489 6 679
126 127 284 173 456 133 90 -22 156 -60 228 -133 188 -190 191 -488 6 -679
-70 -72 -136 -112 -223 -135 l-65 -17 316 0 315 -1 -46 49 c-111 118 -153 278
-115 440 22 90 60 156 133 228 119 118 280 166 444 132 129 -27 269 -130 330
-245 97 -180 67 -407 -72 -555 l-46 -49 824 0 c781 0 824 1 817 18 -14 36 -17
153 -6 212 20 101 85 224 154 292 119 118 297 175 466 151 137 -20 284 -103
353 -200 17 -23 35 -43 39 -43 4 0 3 17 -2 38 -50 215 102 466 328 543 96 33
240 33 336 0 237 -81 382 -335 322 -564 -42 -160 -167 -295 -322 -348 -96 -33
-240 -33 -336 0 -75 26 -165 87 -219 150 l-36 42 1 -118 c1 -65 -1 -130 -6
-145 l-7 -28 1264 0 1264 0 11 46 c47 185 216 364 403 425 103 34 253 34 356
0 187 -61 356 -240 403 -425 l11 -46 919 0 919 0 0 3240 0 3240 -769 0 -768 0
-6 -88 c-27 -375 -286 -675 -647 -748 -98 -19 -237 -15 -335 11 -210 56 -405
218 -508 422 -40 79 -77 217 -84 315 l-6 88 -4198 0 -4199 0 0 -2285z m6680
961 c0 -3 -4 -8 -10 -11 -5 -3 -10 -1 -10 4 0 6 5 11 10 11 6 0 10 -2 10 -4z
m-2981 -511 c253 -60 421 -305 384 -560 -42 -295 -329 -489 -621 -420 -258 61
-427 311 -384 568 50 293 331 480 621 412z m-995 -2630 c271 -57 476 -311 476
-590 0 -329 -276 -605 -605 -605 -279 0 -533 205 -590 476 -44 206 15 405 165
554 149 150 348 209 554 165z m2755 -300 c129 -31 247 -119 318 -237 39 -64
73 -190 73 -268 0 -78 -34 -204 -73 -268 -44 -75 -124 -152 -195 -190 -277
-148 -608 -14 -713 288 -18 52 -23 87 -23 170 0 83 5 118 23 170 88 253 337
394 590 335z m-913 -566 c208 -38 384 -212 429 -424 29 -139 14 -247 -55 -383
-130 -257 -444 -362 -709 -237 -54 26 -92 54 -145 108 -83 84 -119 146 -146
253 -50 196 2 387 146 532 131 132 298 184 480 151z m6553 -134 c189 -45 338
-188 386 -370 63 -244 -84 -500 -335 -585 -324 -110 -672 107 -697 435 -26
334 305 600 646 520z"/>
</g>
</svg>
